<svg xmlns="http://www.w3.org/2000/svg" xmlns:xlink="http://www.w3.org/1999/xlink" contentStyleType="text/css" height="504px" preserveAspectRatio="none" style="width:1350px;height:504px;;" version="1.1" viewBox="0 0 1350 504" width="1350px" zoomAndPan="magnify"><defs></defs><g><g><title>ESP32 HTTP Server</title><rect fill="#FFFFFF" height="152.8241" style="stroke:#181818;stroke-width:1;" width="10" x="487.7663" y="117.7739"></rect></g><g><title>Cliente .Postman . App.</title><rect fill="#000000" fill-opacity="0.00000" height="337.3541" width="8" x="81.2797" y="84.0679"></rect><line style="stroke:#181818;stroke-width:0.5;stroke-dasharray:5,5;" x1="85" x2="85" y1="84.0679" y2="421.4221"></line></g><g><title>ESP32 HTTP Server</title><rect fill="#000000" fill-opacity="0.00000" height="337.3541" width="8" x="488.7663" y="84.0679"></rect><line style="stroke:#181818;stroke-width:0.5;stroke-dasharray:5,5;" x1="491.8656" x2="491.8656" y1="84.0679" y2="421.4221"></line></g><g><title>Broker MQTT</title><rect fill="#000000" fill-opacity="0.00000" height="337.3541" width="8" x="924.2241" y="84.0679"></rect><line style="stroke:#181818;stroke-width:0.5;stroke-dasharray:5,5;" x1="927.5512" x2="927.5512" y1="84.0679" y2="421.4221"></line></g><g><title>Suscriptor .mosquitto_sub . Node-RED.</title><rect fill="#000000" fill-opacity="0.00000" height="337.3541" width="8" x="1205.8185" y="84.0679"></rect><line style="stroke:#181818;stroke-width:0.5;stroke-dasharray:5,5;" x1="1209.649" x2="1209.649" y1="84.0679" y2="421.4221"></line></g><g class="participant participant-head"><text fill="#000000" font-family="sans-serif" font-size="14" lengthAdjust="spacing" textLength="154.5594" x="5" y="79.9659">Cliente (Postman / App)</text><ellipse cx="85.2797" cy="13.5" fill="#E2E2F0" rx="8" ry="8" style="stroke:#181818;stroke-width:0.5;"></ellipse><path d="M85.2797,21.5 L85.2797,48.5 M72.2797,29.5 L98.2797,29.5 M85.2797,48.5 L72.2797,63.5 M85.2797,48.5 L98.2797,63.5" fill="none" style="stroke:#181818;stroke-width:0.5;"></path></g><g class="participant participant-tail"><text fill="#000000" font-family="sans-serif" font-size="14" lengthAdjust="spacing" textLength="154.5594" x="5" y="435.388">Cliente (Postman / App)</text><ellipse cx="85.2797" cy="447.99" fill="#E2E2F0" rx="8" ry="8" style="stroke:#181818;stroke-width:0.5;"></ellipse><path d="M85.2797,455.99 L85.2797,482.99 M72.2797,463.99 L98.2797,463.99 M85.2797,482.99 L72.2797,497.99 M85.2797,482.99 L98.2797,497.99" fill="none" style="stroke:#181818;stroke-width:0.5;"></path></g><g class="participant participant-head"><rect fill="#E2E2F0" height="33.0679" rx="2.5" ry="2.5" style="stroke:#181818;stroke-width:0.5;" width="137.8015" x="423.8656" y="50"></rect><text fill="#000000" font-family="sans-serif" font-size="14" lengthAdjust="spacing" textLength="123.8015" x="430.8656" y="71.9659">ESP32 HTTP Server</text></g><g class="participant participant-tail"><rect fill="#E2E2F0" height="33.0679" rx="2.5" ry="2.5" style="stroke:#181818;stroke-width:0.5;" width="137.8015" x="423.8656" y="420.4221"></rect><text fill="#000000" font-family="sans-serif" font-size="14" lengthAdjust="spacing" textLength="123.8015" x="430.8656" y="442.388">ESP32 HTTP Server</text></g><g class="participant participant-head"><rect fill="#E2E2F0" height="33.0679" rx="2.5" ry="2.5" style="stroke:#181818;stroke-width:0.5;" width="101.3457" x="877.5512" y="50"></rect><text fill="#000000" font-family="sans-serif" font-size="14" lengthAdjust="spacing" textLength="87.3457" x="884.5512" y="71.9659">Broker MQTT</text></g><g class="participant participant-tail"><rect fill="#E2E2F0" height="33.0679" rx="2.5" ry="2.5" style="stroke:#181818;stroke-width:0.5;" width="101.3457" x="877.5512" y="420.4221"></rect><text fill="#000000" font-family="sans-serif" font-size="14" lengthAdjust="spacing" textLength="87.3457" x="884.5512" y="442.388">Broker MQTT</text></g><g class="participant participant-head"><rect fill="#E2E2F0" height="33.0679" rx="2.5" ry="2.5" style="stroke:#181818;stroke-width:0.5;" width="270.339" x="1074.649" y="50"></rect><text fill="#000000" font-family="sans-serif" font-size="14" lengthAdjust="spacing" textLength="256.339" x="1081.649" y="71.9659">Suscriptor (mosquitto_sub / Node-RED)</text></g><g class="participant participant-tail"><rect fill="#E2E2F0" height="33.0679" rx="2.5" ry="2.5" style="stroke:#181818;stroke-width:0.5;" width="270.339" x="1074.649" y="420.4221"></rect><text fill="#000000" font-family="sans-serif" font-size="14" lengthAdjust="spacing" textLength="256.339" x="1081.649" y="442.388">Suscriptor (mosquitto_sub / Node-RED)</text></g><g><title>ESP32 HTTP Server</title><rect fill="#FFFFFF" height="152.8241" style="stroke:#181818;stroke-width:1;" width="10" x="487.7663" y="117.7739"></rect></g><g class="message"><polygon fill="#181818" points="475.7663,113.7739,485.7663,117.7739,475.7663,121.7739,479.7663,117.7739" style="stroke:#181818;stroke-width:1;"></polygon><line style="stroke:#181818;stroke-width:1;" x1="85.2797" x2="481.7663" y1="117.7739" y2="117.7739"></line><text fill="#000000" font-family="sans-serif" font-size="13" font-weight="bold" lengthAdjust="spacing" textLength="7.8423" x="92.2797" y="111.9649">1</text><text fill="#000000" font-family="sans-serif" font-size="13" lengthAdjust="spacing" textLength="318.2012" x="104.122" y="111.9649">GET /move?dir&#61;fwd&amp;speed&#61;150&amp;duration_ms&#61;1000</text></g><g class="message"><line style="stroke:#181818;stroke-width:1;" x1="497.7663" x2="539.7663" y1="149.4799" y2="149.4799"></line><line style="stroke:#181818;stroke-width:1;" x1="539.7663" x2="539.7663" y1="149.4799" y2="162.4799"></line><line style="stroke:#181818;stroke-width:1;" x1="498.7663" x2="539.7663" y1="162.4799" y2="162.4799"></line><polygon fill="#181818" points="508.7663,158.4799,498.7663,162.4799,508.7663,166.4799,504.7663,162.4799" style="stroke:#181818;stroke-width:1;"></polygon><text fill="#000000" font-family="sans-serif" font-size="13" font-weight="bold" lengthAdjust="spacing" textLength="7.8423" x="504.7663" y="143.6709">2</text><text fill="#000000" font-family="sans-serif" font-size="13" lengthAdjust="spacing" textLength="215.6962" x="516.6086" y="143.6709">Validar parámetros (cap a 5000 ms)</text></g><g class="message"><line style="stroke:#181818;stroke-width:1;" x1="497.7663" x2="539.7663" y1="194.186" y2="194.186"></line><line style="stroke:#181818;stroke-width:1;" x1="539.7663" x2="539.7663" y1="194.186" y2="207.186"></line><line style="stroke:#181818;stroke-width:1;" x1="498.7663" x2="539.7663" y1="207.186" y2="207.186"></line><polygon fill="#181818" points="508.7663,203.186,498.7663,207.186,508.7663,211.186,504.7663,207.186" style="stroke:#181818;stroke-width:1;"></polygon><text fill="#000000" font-family="sans-serif" font-size="13" font-weight="bold" lengthAdjust="spacing" textLength="7.8423" x="504.7663" y="188.377">3</text><text fill="#000000" font-family="sans-serif" font-size="13" lengthAdjust="spacing" textLength="237.2892" x="516.6086" y="188.377">Ejecutar motores (adelante, PWM&#61;150)</text></g><g class="message"><polygon fill="#181818" points="96.2797,234.892,86.2797,238.892,96.2797,242.892,92.2797,238.892" style="stroke:#181818;stroke-width:1;"></polygon><line style="stroke:#181818;stroke-width:1;stroke-dasharray:2,2;" x1="90.2797" x2="486.7663" y1="238.892" y2="238.892"></line><text fill="#000000" font-family="sans-serif" font-size="13" font-weight="bold" lengthAdjust="spacing" textLength="7.8423" x="102.2797" y="233.083">4</text><text fill="#000000" font-family="sans-serif" font-size="13" lengthAdjust="spacing" textLength="171.6262" x="114.122" y="233.083">200 OK {ok:true, ... caller_ip}</text></g><g class="message"><polygon fill="#181818" points="916.2241,266.598,926.2241,270.598,916.2241,274.598,920.2241,270.598" style="stroke:#181818;stroke-width:1;"></polygon><line style="stroke:#181818;stroke-width:1;" x1="492.7663" x2="922.2241" y1="270.598" y2="270.598"></line><text fill="#000000" font-family="sans-serif" font-size="13" font-weight="bold" lengthAdjust="spacing" textLength="7.8423" x="499.7663" y="264.789">5</text><text fill="#000000" font-family="sans-serif" font-size="13" lengthAdjust="spacing" textLength="394.6155" x="511.6086" y="264.789">publish &#34;esp32car/commands&#34; {&#34;dir&#34;:&#34;fwd&#34;,...,&#34;caller_ip&#34;:&#34;x.x.x.x&#34;}</text></g><g class="message"><polygon fill="#181818" points="1197.8185,298.304,1207.8185,302.304,1197.8185,306.304,1201.8185,302.304" style="stroke:#181818;stroke-width:1;"></polygon><line style="stroke:#181818;stroke-width:1;stroke-dasharray:2,2;" x1="928.2241" x2="1203.8185" y1="302.304" y2="302.304"></line><text fill="#000000" font-family="sans-serif" font-size="13" font-weight="bold" lengthAdjust="spacing" textLength="7.8423" x="935.2241" y="296.495">6</text><text fill="#000000" font-family="sans-serif" font-size="13" lengthAdjust="spacing" textLength="245.7522" x="947.0663" y="296.495">Mensaje en topic &#34;esp32car/commands&#34;</text></g><g class="message"><polygon fill="#181818" points="480.7663,330.01,490.7663,334.01,480.7663,338.01,484.7663,334.01" style="stroke:#181818;stroke-width:1;"></polygon><line style="stroke:#181818;stroke-width:1;" x1="85.2797" x2="486.7663" y1="334.01" y2="334.01"></line><text fill="#000000" font-family="sans-serif" font-size="13" font-weight="bold" lengthAdjust="spacing" textLength="7.8423" x="92.2797" y="328.201">7</text><text fill="#000000" font-family="sans-serif" font-size="13" lengthAdjust="spacing" textLength="70.8761" x="104.122" y="328.201">GET /health</text></g><g class="message"><polygon fill="#181818" points="96.2797,361.716,86.2797,365.716,96.2797,369.716,92.2797,365.716" style="stroke:#181818;stroke-width:1;"></polygon><line style="stroke:#181818;stroke-width:1;stroke-dasharray:2,2;" x1="90.2797" x2="491.7663" y1="365.716" y2="365.716"></line><text fill="#000000" font-family="sans-serif" font-size="13" font-weight="bold" lengthAdjust="spacing" textLength="7.8423" x="102.2797" y="359.907">8</text><text fill="#000000" font-family="sans-serif" font-size="13" lengthAdjust="spacing" textLength="371.6444" x="114.122" y="359.907">200 OK {&#34;status&#34;:&#34;ok&#34;,&#34;uptime_ms&#34;:...,&#34;mqtt_connected&#34;:true}</text></g><path d="M385,378.716 L385,405.716 L598,405.716 L598,388.716 L588,378.716 L385,378.716" fill="#FEFFDD" style="stroke:#181818;stroke-width:0.5;"></path><path d="M588,378.716 L588,388.716 L598,388.716 L588,378.716" fill="#FEFFDD" style="stroke:#181818;stroke-width:0.5;"></path><text fill="#000000" font-family="sans-serif" font-size="13" lengthAdjust="spacing" textLength="192.5822" x="391" y="397.6131">Al vencer duration_ms: stopAll()</text></g></svg>